<?xml version="1.0" encoding="utf-8"?>
<!DOCTYPE svg PUBLIC "-//W3C//DTD SVG 20010904//EN" "http://www.w3.org/TR/2001/REC-SVG-20010904/DTD/svg10.dtd">
<svg version="1.0" xmlns="http://www.w3.org/2000/svg" width="413pt" height="338pt" viewBox="0 0 413 338" preserveAspectRatio="xMidYMid meet">
<g fill="#FCFCFCFE">
<path d="M 161.47 285.79 C 157.10 282.42 153.01 279.18 152.39 278.58 C 151.76 277.99 150.23 276.82 148.98 276.00 C 147.73 275.18 143.18 271.87 138.87 268.65 L 131.02 262.79 L 130.76 162.15 C 130.62 106.79 130.88 60.60 131.34 59.50 C 131.79 58.40 138.02 53.23 145.16 48.00 C 152.30 42.77 158.76 37.94 159.50 37.25 C 160.25 36.56 161.14 36.00 161.50 36.00 C 161.85 36.00 163.61 34.87 165.41 33.50 C 167.21 32.12 169.16 31.00 169.74 31.00 C 170.48 31.00 170.69 70.36 170.44 161.13 C 170.24 232.70 169.93 291.40 169.75 291.58 C 169.57 291.76 165.85 289.16 161.47 285.79Z"/></g>
<g fill="#FCFCFCFE">
<path d="M 193.00 229.50 C 193.00 183.83 193.35 159.00 193.99 159.00 C 195.22 159.00 202.75 163.97 211.38 170.50 L 218.00 175.50 L 218.00 205.63 C 218.00 242.65 217.56 241.72 230.34 231.85 C 233.18 229.65 237.97 226.00 241.00 223.73 C 244.03 221.46 247.01 219.13 247.63 218.55 C 248.25 217.97 249.76 216.82 250.99 216.00 C 252.22 215.18 256.44 212.02 260.36 208.98 C 264.29 205.94 271.99 200.09 277.49 195.98 C 282.98 191.87 288.38 187.67 289.49 186.65 C 293.55 182.91 303.12 176.88 304.49 177.18 C 306.68 177.68 329.06 195.00 329.72 196.72 C 330.05 197.58 329.61 198.64 328.70 199.15 C 327.82 199.64 326.51 200.62 325.80 201.32 C 325.08 202.02 321.80 204.58 318.50 207.02 C 315.20 209.45 310.93 212.70 309.00 214.25 C 307.07 215.80 305.05 217.40 304.50 217.80 C 303.95 218.21 299.23 221.66 294.00 225.47 C 288.77 229.28 284.05 232.79 283.50 233.26 C 282.55 234.08 242.09 264.24 237.16 267.81 C 235.87 268.74 233.40 270.73 231.66 272.23 C 229.92 273.74 228.10 274.98 227.61 274.98 C 227.12 274.99 226.22 275.60 225.61 276.33 C 225.00 277.06 219.55 281.20 213.50 285.53 C 207.45 289.86 202.28 293.67 202.00 294.00 C 201.04 295.16 194.30 300.00 193.66 300.00 C 193.30 300.00 193.00 268.27 193.00 229.50Z"/></g>
<g fill="#FCFCFCFE">
<path d="M 298.25 152.72 C 297.01 152.16 296.00 151.31 296.00 150.85 C 296.00 150.38 295.50 150.00 294.89 150.00 C 293.85 150.00 287.79 145.59 283.56 141.76 C 282.50 140.79 281.29 140.00 280.88 140.00 C 280.48 140.00 279.55 139.43 278.82 138.72 C 278.09 138.02 271.65 133.20 264.50 128.00 C 257.35 122.80 251.01 118.09 250.42 117.53 C 249.83 116.96 246.33 114.25 242.65 111.50 C 236.43 106.86 224.47 97.87 209.13 86.30 C 205.62 83.66 200.56 79.80 197.88 77.73 L 193.00 73.95 L 193.00 49.98 C 193.00 36.79 193.34 26.00 193.76 26.00 C 194.18 26.00 201.04 31.02 209.01 37.15 C 216.98 43.28 228.68 52.20 235.00 56.97 C 241.32 61.73 248.97 67.54 252.00 69.86 C 255.03 72.19 265.38 80.03 275.00 87.29 C 284.62 94.54 292.73 100.74 293.00 101.05 C 293.27 101.36 298.00 104.92 303.50 108.97 C 309.00 113.01 313.65 116.70 313.83 117.16 C 314.02 117.62 314.77 118.00 315.50 118.00 C 316.23 118.00 316.98 118.34 317.17 118.75 C 317.35 119.16 320.20 121.53 323.50 124.00 C 330.17 129.00 332.42 130.98 331.87 131.34 C 328.40 133.62 319.42 140.59 319.17 141.19 C 318.98 141.64 318.40 142.00 317.87 142.00 C 317.35 142.00 316.37 142.46 315.71 143.02 C 311.24 146.78 309.61 148.00 309.04 148.00 C 308.67 148.00 307.48 148.84 306.38 149.86 C 302.94 153.06 300.71 153.85 298.25 152.72Z"/></g>
<g fill="#FCFCFCFE">
<path d="M 254.50 174.93 C 252.30 173.27 249.59 171.14 248.49 170.20 C 247.38 169.27 242.88 165.80 238.49 162.50 C 234.09 159.20 230.28 156.25 230.00 155.95 C 229.72 155.65 227.25 153.85 224.50 151.95 C 221.75 150.05 219.28 148.26 219.00 147.96 C 218.72 147.67 214.22 144.34 209.00 140.58 C 203.78 136.81 198.04 132.35 196.25 130.67 L 193.00 127.61 L 193.00 115.86 C 193.00 108.73 193.41 103.86 194.05 103.47 C 194.91 102.94 204.15 109.04 209.31 113.53 C 209.97 114.10 218.38 120.32 228.00 127.36 C 256.47 148.17 277.50 164.49 277.50 165.78 C 277.50 167.62 263.18 178.00 260.68 177.97 C 259.48 177.96 256.70 176.59 254.50 174.93Z"/></g>
<g fill="#CBCBCBFB">
<path d="M 130.48 162.50 C 130.48 107.50 130.60 84.85 130.75 112.17 C 130.90 139.49 130.90 184.49 130.75 212.17 C 130.60 239.85 130.48 217.50 130.48 162.50Z"/></g>
<g fill="#CBCBCBFB">
<path d="M 170.42 250.00 C 170.42 238.72 170.57 234.11 170.75 239.75 C 170.92 245.39 170.92 254.61 170.75 260.25 C 170.57 265.89 170.42 261.27 170.42 250.00Z"/></g>
</svg>
